<svg width="72" height="73" viewBox="0 0 72 73" fill="none" xmlns="http://www.w3.org/2000/svg">
<path d="M62.6509 60.0319C62.6509 60.0319 55.2411 69.5881 38.6542 68.587C40.6186 64.8555 43.7736 59.4934 47.9222 54.5712C55.2486 45.8569 45.5863 42.2468 39.6326 41.3973C33.6865 40.5479 41.8093 34.3364 45.7986 30.347C49.7804 26.3653 37.729 17.2793 37.729 17.2793L30.7742 17.5827L37.2208 14.7765L41.7335 7.96582C41.7335 7.96582 46.8073 8.44363 52.7307 10.8706C52.8975 15.2467 53.9517 28.9743 60.5425 28.9743C63.4928 28.9743 66.8071 28.5875 69.8105 28.1021C70.0152 28.7619 70.1973 29.4521 70.3565 30.1574C74.7478 50.0737 62.6509 60.0319 62.6509 60.0319Z" fill="#0487F3"/>
<path d="M69.7954 28.1021C66.7996 28.5799 63.4777 28.9743 60.5274 28.9743C53.9366 28.9743 52.8824 15.2467 52.7156 10.8706C59.276 13.5554 66.8754 18.6293 69.7954 28.1021Z" fill="#00DD5D"/>
<path d="M47.9147 54.5712C43.7737 59.4934 40.611 64.8555 38.6467 68.587C37.2512 68.5035 35.8026 68.3443 34.2782 68.1016L26.2161 31.788V19.5622L30.7666 17.5827L37.7214 17.2793C37.7214 17.2793 49.7804 26.3653 45.7911 30.347C41.8093 34.3288 33.679 40.5479 39.6251 41.3973C45.5787 42.2392 55.2487 45.8569 47.9147 54.5712Z" fill="#00DD5D"/>
<path d="M44.0164 4.06747C44.0695 1.8832 42.3402 0.222239 40.3077 0.237408C38.2068 0.252576 36.7203 1.83011 36.6824 4.12056C36.652 5.94079 36.7203 7.7686 36.652 9.58882C36.561 12.1296 35.1504 14.0332 32.9054 14.64C31.0321 15.1405 29.1284 14.9282 27.2096 14.8447C27.2551 14.2228 27.6723 14.0105 27.9225 13.6919C30.2888 10.6961 30.1523 6.38826 27.604 3.65792C24.9722 0.84415 20.6947 0.343588 17.661 2.50511C14.3543 4.85623 13.4366 8.84556 15.2189 12.4708C15.6284 13.2975 17.0922 13.9877 16.3641 14.8447C15.9318 15.3605 14.4377 15.0268 13.429 15.004C10.1526 14.9206 8.0138 12.7818 7.95313 9.52056C7.9152 7.75343 7.96071 5.98629 7.93795 4.21915C7.90762 1.9287 6.41352 0.313251 4.35059 0.298082C2.30284 0.282913 0.755642 1.90595 0.710137 4.1964C0.672215 6.01663 0.679804 7.83686 0.702557 9.66467C0.778399 15.588 3.66042 19.5394 9.30313 21.481C12.1169 22.4442 12.8222 23.7032 12.4506 26.7217C12.0183 30.2256 11.677 33.7448 11.3205 37.2563C10.7138 43.2175 10.1146 49.1863 9.53824 55.1552C9.12869 59.3645 8.67363 63.5737 8.41577 67.7906C8.26408 70.2706 10.1526 72.0833 12.5947 72.1743C14.8548 72.2577 16.7812 70.5209 17.0239 68.147C17.1453 66.9791 17.2135 65.7959 17.3197 64.6279C17.843 58.8715 18.336 53.115 18.92 47.3585C19.1096 45.4852 20.4596 44.2945 22.0675 44.2717C23.9711 44.249 25.4576 45.5156 25.7231 47.4268C25.8748 48.5417 25.9582 49.6642 26.0568 50.779C26.5422 56.4369 26.9745 62.0948 27.5281 67.7375C27.7936 70.4147 29.4925 72.0757 31.7526 72.2274C33.9293 72.3715 35.6509 70.9381 36.3942 68.3822C35.8557 62.9821 35.3172 57.5821 34.7787 52.1821C34.4147 48.4886 34.0582 44.7875 33.6942 41.0939C33.6866 41.0939 33.679 41.0939 33.6714 41.0939L33.0419 34.9582C32.7537 32.0535 32.5186 29.1487 32.147 26.2591C31.836 23.8549 32.913 22.3683 35.0138 21.5037C36.8417 20.7605 38.5481 19.8048 40.247 18.8189C42.3782 17.0062 43.531 14.7234 43.9102 11.9248C44.2515 9.29304 43.9557 6.68405 44.0164 4.06747Z" fill="#F9C645"/>
</svg>
