<svg width="72" height="73" viewBox="0 0 72 73" fill="none" xmlns="http://www.w3.org/2000/svg">
<path d="M47.4753 13.5063L37.8812 1.15871C36.9252 -0.0698309 35.0656 -0.0698309 34.1143 1.15871L24.5202 13.5063C23.7889 14.448 24.4581 15.82 25.6532 15.82H29.3818V26.1024C29.3818 26.7764 29.9316 27.3262 30.6056 27.3262H41.39C42.064 27.3262 42.6138 26.7764 42.6138 26.1024V15.82H46.3424C47.5375 15.82 48.2067 14.448 47.4753 13.5063Z" fill="#F9C645"/>
<path d="M18.8747 18.344L3.73545 14.4289C2.22965 14.0369 0.757307 15.1747 0.752527 16.733L0.704724 32.3695C0.699944 33.5598 2.06711 34.2338 3.01362 33.5072L5.96307 31.2318L12.2444 39.3679C12.6555 39.9033 13.4252 40.0036 13.9606 39.5878L22.4982 32.9957C23.0336 32.5846 23.134 31.8149 22.7181 31.2796L16.4368 23.1434L19.3862 20.868C20.3327 20.1366 20.0268 18.6404 18.8747 18.344Z" fill="#0487F3"/>
<path d="M53.1259 18.344L68.2651 14.4289C69.7709 14.0369 71.2433 15.1747 71.2481 16.733L71.2959 32.3695C71.3006 33.5598 69.9335 34.2338 68.987 33.5072L66.0375 31.2318L59.7562 39.3679C59.3451 39.9033 58.5754 40.0036 58.04 39.5878L49.5024 32.9957C48.967 32.5846 48.8666 31.8149 49.2825 31.2796L55.5638 23.1434L52.6144 20.868C51.6679 20.1366 51.9738 18.6404 53.1259 18.344Z" fill="#00DD5D"/>
<path d="M25.9399 46.978H46.371C48.3118 46.978 49.8846 48.5508 49.8846 50.4916V50.8023C49.8846 52.7431 48.3118 54.3158 46.371 54.3158H25.9399C23.9991 54.3158 22.4264 52.7431 22.4264 50.8023V50.4916C22.4216 48.5508 23.9991 46.978 25.9399 46.978Z" fill="#28394C"/>
<path d="M52.1505 58.1162C52.1505 60.1287 50.6017 61.7779 48.6322 61.9357C48.5318 61.9452 48.4266 61.95 48.3214 61.95C48.0537 61.95 47.7908 61.9213 47.5375 61.8687H24.4676C24.2143 61.9213 23.9561 61.95 23.6837 61.95H23.6789C21.566 61.95 19.8499 60.2339 19.8499 58.121C19.8499 56.1276 21.3748 54.4879 23.3204 54.3111C23.4399 54.2967 23.5594 54.2919 23.6789 54.2919C23.8414 54.2919 23.9992 54.3015 24.1521 54.3206H47.8386C47.9964 54.3015 48.1541 54.2919 48.3119 54.2919C48.5413 54.2919 48.7612 54.3111 48.9763 54.3493C50.7833 54.66 52.1505 56.228 52.1505 58.1162Z" fill="#FACAB4"/>
<path d="M48.986 54.3445V59.1965C48.986 60.1382 48.8617 61.056 48.6322 61.9356C48.5318 61.9452 48.4267 61.95 48.3215 61.95C48.0538 61.95 47.7909 61.9213 47.5375 61.8687H24.4677C24.2144 61.9213 23.9562 61.95 23.6837 61.95H23.679C23.4447 61.0656 23.3204 60.1478 23.3204 59.2013V54.3062C23.4399 54.2919 23.5595 54.2871 23.679 54.2871C23.8415 54.2871 23.9992 54.2967 24.1522 54.3158H47.8387C47.9965 54.2967 48.1542 54.2871 48.3119 54.2871C48.5462 54.2871 48.7661 54.3062 48.986 54.3445Z" fill="#E99976"/>
<path d="M50.0615 58.967C49.7747 58.967 49.507 58.7997 49.3827 58.5224C49.0767 57.8149 48.1446 58.0396 48.0394 58.0683C47.6474 58.1782 47.2411 57.9536 47.1312 57.5616C47.0212 57.1696 47.2507 56.7633 47.6427 56.6485C48.4218 56.4286 50.0758 56.4095 50.7355 57.9344C50.8981 58.3073 50.726 58.7423 50.3531 58.9048C50.2575 58.9479 50.1571 58.967 50.0615 58.967Z" fill="#E99976"/>
<path d="M22.3356 58.967C22.2353 58.967 22.1397 58.9479 22.044 58.9049C21.6712 58.7423 21.4991 58.3073 21.6616 57.9345C22.0345 57.074 23.0097 56.2757 24.6206 56.6151C25.0174 56.7012 25.2755 57.0931 25.1895 57.4899C25.1035 57.8867 24.7162 58.1448 24.3147 58.0588C23.9371 57.9775 23.2726 57.9345 23.0145 58.5224C22.8902 58.8045 22.6177 58.967 22.3356 58.967Z" fill="#E99976"/>
<path d="M47.8433 52.59V60.5493C47.8433 66.2474 43.7705 70.9895 38.3735 72.0268C37.6565 72.1655 36.9107 72.2372 36.1507 72.2372C29.6972 72.2372 24.4628 67.0027 24.4628 60.5493V52.59C24.4628 46.1366 29.6972 40.9022 36.1507 40.9022C36.9107 40.9022 37.6517 40.9739 38.3735 41.1125C40.7111 41.5618 42.8001 42.7091 44.4206 44.3249C46.5335 46.4378 47.8433 49.3633 47.8433 52.59Z" fill="#E99976"/>
<path d="M47.8433 52.5901V60.5493C47.8433 66.2475 43.7705 70.9896 38.3735 72.0269C32.9813 70.9896 28.9037 66.2427 28.9037 60.5493V52.5901C28.9037 46.892 32.9765 42.1499 38.3735 41.1125C40.7111 41.5619 42.8001 42.7092 44.4206 44.3249C46.5335 46.4378 47.8433 49.3634 47.8433 52.5901Z" fill="#FACAB4"/>
<path d="M36.1555 65.7264C34.2147 65.7264 32.3886 64.9712 31.0166 63.5992C30.7298 63.3124 30.7298 62.8439 31.0166 62.5571C31.3034 62.2703 31.7719 62.2703 32.0587 62.5571C33.1534 63.6518 34.6066 64.2541 36.1555 64.2541C37.7043 64.2541 39.1575 63.6518 40.2522 62.5571C40.539 62.2703 41.0075 62.2703 41.2943 62.5571C41.5811 62.8439 41.5811 63.3124 41.2943 63.5992C39.9224 64.9712 38.0963 65.7264 36.1555 65.7264Z" fill="#D39262"/>
<path d="M31.0597 59.7128C30.6533 59.7128 30.3235 59.383 30.3235 58.9766V56.1037C30.3235 55.6973 30.6533 55.3675 31.0597 55.3675C31.466 55.3675 31.7958 55.6973 31.7958 56.1037V58.9766C31.8006 59.383 31.4708 59.7128 31.0597 59.7128Z" fill="#172635"/>
<path d="M41.2465 59.7129C40.8402 59.7129 40.5104 59.3831 40.5104 58.9768V56.1038C40.5104 55.6975 40.8402 55.3676 41.2465 55.3676C41.6529 55.3676 41.9827 55.6975 41.9827 56.1038V58.9768C41.9827 59.3831 41.6529 59.7129 41.2465 59.7129Z" fill="#172635"/>
<path d="M47.1502 35.4001L41.9062 40.6441C41.4616 39.5542 40.3908 38.7846 39.1431 38.7846C38.1154 38.7846 37.2119 39.3008 36.6765 40.0896C35.3045 38.4021 33.2155 37.3218 30.8684 37.3218C26.7382 37.3218 23.392 40.668 23.392 44.7982C23.392 48.9284 26.7382 52.2746 30.8684 52.2746C32.5941 52.2746 34.1812 51.6866 35.4479 50.7067C39.1622 52.8339 43.9808 52.3176 47.1502 49.1435C50.9457 45.3527 50.9457 39.2004 47.1502 35.4001Z" fill="#405369"/>
<path d="M27.8759 44.8029C27.8759 48.1492 30.0749 50.9839 33.1104 51.94C32.4029 52.1646 31.6476 52.2841 30.8684 52.2841C26.7382 52.2841 23.392 48.9379 23.392 44.8077C23.392 40.6775 26.7382 37.3313 30.8684 37.3313C31.6524 37.3313 32.4029 37.4508 33.1104 37.6755C30.0749 38.622 27.8759 41.4567 27.8759 44.8029Z" fill="#28394C"/>
</svg>
