<svg width="72" height="73" viewBox="0 0 72 73" fill="none" xmlns="http://www.w3.org/2000/svg">
<path d="M2.23889 44.6941V71.7665H20.4601L23.6628 44.6941L12.477 40.7344L2.23889 44.6941Z" fill="#0487F3"/>
<path d="M69.7661 44.6941V71.7665H51.5396L48.3369 44.6941L59.5227 40.7344L69.7661 44.6941Z" fill="#0487F3"/>
<path d="M9.17903 49.882C9.17903 47.071 9.34314 44.3553 9.74017 41.7932L2.23889 44.6941V71.7665H16.225C10.7513 66.531 9.17903 58.675 9.17903 49.882Z" fill="#0487F3"/>
<path d="M20.4601 31.5391H8.44856C6.44222 31.5391 4.61057 32.672 3.72122 34.4666L0.237917 41.4649C-0.503211 42.9525 0.576719 44.6942 2.23896 44.6942H23.6629L20.4601 31.5391Z" fill="#0E2549"/>
<path d="M57.633 47.8652C57.633 45.6047 57.7441 43.4025 57.9824 41.2797L48.3424 44.6889L51.5451 71.7613H64.4884C59.7081 66.0069 57.633 57.4363 57.633 47.8652Z" fill="#0487F3"/>
<path d="M51.5398 31.5391H63.5514C65.5578 31.5391 67.3894 32.672 68.2788 34.4666L71.7621 41.4649C72.5032 42.9525 71.4233 44.6942 69.761 44.6942H48.3424L51.5398 31.5391Z" fill="#0E2549"/>
<path d="M60.4014 31.5391H51.5396L48.3369 44.6942H57.7016C57.9451 39.9086 58.7498 35.4406 60.4014 31.5391Z" fill="#0E2549"/>
<path d="M42.8421 71.7612H51.5398V17.8335L35.9972 7.02362L20.4547 17.8335V71.7612H29.1524L35.9919 64.3287L42.8421 71.7612Z" fill="#0487F3"/>
<path d="M57.453 14.4085L38.6654 1.53402C37.0614 0.432915 34.9439 0.432915 33.3346 1.53402L14.547 14.4085C13.3241 15.2449 13.0118 16.9177 13.8482 18.1459L16.1404 21.4916C16.9768 22.7144 18.6497 23.0267 19.8778 22.1903L35.9974 11.1422L52.1169 22.1903C53.3398 23.0267 55.0126 22.7144 55.8543 21.4916L58.1465 18.1459C58.9882 16.923 58.6759 15.2502 57.453 14.4085Z" fill="#0E2549"/>
<path d="M36.0025 36.8805C40.7885 36.8805 44.6684 33.0006 44.6684 28.2145C44.6684 23.4285 40.7885 19.5486 36.0025 19.5486C31.2164 19.5486 27.3365 23.4285 27.3365 28.2145C27.3365 33.0006 31.2164 36.8805 36.0025 36.8805Z" fill="#ECEBF7"/>
<path d="M40.3486 33.9848C35.5631 33.9848 31.6827 30.1044 31.6827 25.3189C31.6827 23.2649 32.3974 21.3803 33.5938 19.8928C29.9781 20.9356 27.3365 24.2654 27.3365 28.2146C27.3365 33.0001 31.2169 36.8805 36.0025 36.8805C38.734 36.8805 41.1692 35.6153 42.7573 33.6407C41.9897 33.863 41.1851 33.9848 40.3486 33.9848Z" fill="#D2D0E9"/>
<path d="M40.2588 27.1295H37.0878V23.9585C37.0878 23.3603 36.6008 22.8733 36.0026 22.8733C35.4044 22.8733 34.9174 23.3603 34.9174 23.9585V28.2147C34.9174 28.8129 35.4044 29.2999 36.0026 29.2999H40.2588C40.857 29.2999 41.344 28.8129 41.344 28.2147C41.344 27.6165 40.857 27.1295 40.2588 27.1295Z" fill="#0E2549"/>
<path d="M26.945 39.6492C26.3468 39.6492 25.8597 40.1362 25.8597 40.7344V42.476C25.8597 43.0742 26.3468 43.5613 26.945 43.5613C27.5432 43.5613 28.0302 43.0742 28.0302 42.476V40.7344C28.0302 40.1362 27.5432 39.6492 26.945 39.6492Z" fill="#303646"/>
<path d="M45.0606 39.6492C44.4624 39.6492 43.9753 40.1363 43.9753 40.7344V42.4761C43.9753 43.0743 44.4624 43.5613 45.0606 43.5613C45.6588 43.5613 46.1458 43.0743 46.1458 42.4761V40.7344C46.1458 40.1363 45.6588 39.6492 45.0606 39.6492Z" fill="#303646"/>
<path d="M39.1051 41.6026C38.6552 41.2109 37.967 41.2532 37.5699 41.7085C37.1729 42.1638 36.6012 42.4232 36.003 42.4232C35.4048 42.4232 34.8278 42.1638 34.436 41.7085C34.0443 41.2585 33.3561 41.2109 32.9008 41.6026C32.4456 41.9944 32.4032 42.6826 32.795 43.1378C33.6049 44.0642 34.7748 44.5989 36.003 44.5989C37.2311 44.5989 38.4011 44.0642 39.211 43.1378C39.6027 42.6826 39.5551 41.9997 39.1051 41.6026Z" fill="#303646"/>
<path d="M42.8422 57.1187V71.7665H29.1578V57.1187C29.1578 53.3389 32.2229 50.2791 35.9974 50.2791C39.7719 50.2791 42.8422 53.3389 42.8422 57.1187Z" fill="#0E2549"/>
<path d="M11.3494 50.2737C9.35366 50.2737 7.73376 51.8936 7.73376 53.8894V59.2096C7.73376 60.2049 8.54371 61.0148 9.53894 61.0148H13.1652C14.1604 61.0148 14.9704 60.2049 14.9704 59.2096V53.8894C14.9651 51.8936 13.3452 50.2737 11.3494 50.2737Z" fill="#FAE09C"/>
<path d="M60.6557 50.2737C62.6515 50.2737 64.2714 51.8936 64.2714 53.8894V59.2096C64.2714 60.2049 63.4614 61.0148 62.4662 61.0148H58.84C57.8447 61.0148 57.0348 60.2049 57.0348 59.2096V53.8894C57.0348 51.8936 58.6547 50.2737 60.6557 50.2737Z" fill="#FAE09C"/>
<path d="M13.3294 31.5391H8.44856C6.44222 31.5391 4.61057 32.672 3.72122 34.4666L0.237917 41.4649C-0.503211 42.9525 0.576719 44.6942 2.23896 44.6942H9.39085C9.82494 39.7392 10.9737 35.2395 13.3294 31.5391Z" fill="#0E2549"/>
<path d="M10.1901 52.7989C10.1901 51.9413 10.3383 51.1155 10.6083 50.3532C8.96721 50.6973 7.73376 52.1531 7.73376 53.8947V59.215C7.73376 60.2102 8.54371 61.0202 9.53894 61.0202H13.1652C13.9963 61.0202 14.6951 60.459 14.9015 59.6914C12.1435 58.6168 10.1901 55.9381 10.1901 52.7989Z" fill="#FDCB73"/>
<path d="M59.4967 52.7989C59.4967 51.9413 59.6449 51.1155 59.9149 50.3532C58.2739 50.6973 57.0404 52.1531 57.0404 53.8947V59.215C57.0404 60.2102 57.8504 61.0202 58.8456 61.0202H62.4665C63.2976 61.0202 63.9964 60.459 64.2029 59.6914C61.4501 58.6168 59.4967 55.9381 59.4967 52.7989Z" fill="#FDCB73"/>
</svg>
