<svg width="72" height="73" viewBox="0 0 72 73" fill="none" xmlns="http://www.w3.org/2000/svg">
<path d="M47.266 72.2303H1.46314C0.654155 72.2303 -6.10352e-05 71.5761 -6.10352e-05 70.7671V64.6188C-6.10352e-05 63.8098 0.654155 63.1556 1.46314 63.1556H47.266V72.2303Z" fill="#F39142"/>
<path d="M44.0513 63.1626C43.39 64.6399 43.0242 66.2579 43.0242 67.9462V67.9954C43.0242 68.6426 42.5036 69.1632 41.8564 69.1632H0.00708008V70.7741C0.00708008 71.5831 0.661318 72.2373 1.47031 72.2373H47.2731V63.1626H44.0513Z" fill="#F07E29"/>
<path d="M65.1201 50.4297C65.1201 47.039 62.3695 44.2814 58.9718 44.2814C55.574 44.2814 52.8235 47.032 52.8235 50.4297V53.3562C52.8235 56.7469 55.574 59.5045 58.9718 59.5045C62.3625 59.5045 65.1201 56.7539 65.1201 53.3562V50.4297Z" fill="#F9CBC3"/>
<path d="M58.9718 44.2885C58.5427 44.2885 58.1277 44.3307 57.7267 44.4151C60.5265 44.992 62.6299 47.4682 62.6299 50.4368V53.3632C62.6299 56.3319 60.5265 58.8081 57.7267 59.3849C58.1277 59.4693 58.5427 59.5116 58.9718 59.5116C62.3625 59.5116 65.1201 56.761 65.1201 53.3632V50.4368C65.1201 47.0391 62.3696 44.2885 58.9718 44.2885Z" fill="#F6B3A8"/>
<path d="M72.0001 70.767V67.9391C72.0001 64.2037 69.6294 60.8692 66.098 59.6452L62.9675 58.5548C61.9756 58.2101 60.9275 58.0342 59.8723 58.0342H58.0784C57.0232 58.0342 55.9821 58.2101 54.9832 58.5548L51.8527 59.6452C48.3213 60.8692 45.9506 64.2037 45.9506 67.9391V72.2302H70.5369C71.3388 72.2302 72.0001 71.576 72.0001 70.767Z" fill="#0E2549"/>
<path d="M66.0979 59.6522L65.2748 59.3638C67.4415 60.9959 68.7781 63.5706 68.7781 66.3774V72.2303H70.5368C71.3458 72.2303 72 71.5761 72 70.7671V67.9391C72 64.2037 69.6293 60.8763 66.0979 59.6522Z" fill="#0E2549"/>
<path d="M31.7122 50.5775L29.5666 49.8318V49.8459L24.5931 58.4775L19.6196 49.8459V49.8318L17.474 50.5775C13.9426 51.8016 11.5719 55.136 11.5719 58.8714V63.1626H37.6213V58.8714C37.6073 55.1289 35.2436 51.8016 31.7122 50.5775Z" fill="#0E2549"/>
<path d="M31.7122 50.5775L30.8891 50.2891C33.0558 51.9211 34.3924 54.4958 34.3924 57.3027V63.1555H37.6143V58.8643C37.6072 55.1289 35.2436 51.8015 31.7122 50.5775Z" fill="#0E2549"/>
<path d="M19.6124 49.8459L24.586 58.4775L29.5595 49.8459V49.8318L27.0692 48.9666H22.0957L19.6054 49.8318L19.6124 49.8459Z" fill="#DEF1FB"/>
<path d="M30.7344 41.3551C30.7344 37.9644 27.9838 35.2067 24.5861 35.2067C21.1953 35.2067 18.4377 37.9573 18.4377 41.3551V44.2815C18.4377 47.6792 21.1883 50.4298 24.5861 50.4298C27.9838 50.4298 30.7344 47.6792 30.7344 44.2815V41.3551Z" fill="#F9CBC3"/>
<path d="M24.5861 35.2137C24.157 35.2137 23.7419 35.2559 23.3409 35.3403C26.1407 35.9171 28.2441 38.3934 28.2441 41.362V44.2884C28.2441 47.2571 26.1407 49.7333 23.3409 50.3101C23.7419 50.3945 24.157 50.4368 24.5861 50.4368C27.9838 50.4368 30.7344 47.6862 30.7344 44.2884V41.362C30.7344 37.9642 27.9838 35.2137 24.5861 35.2137Z" fill="#F6B3A8"/>
<path d="M37.1713 0.237305H5.85994C2.63102 0.237305 0.00708008 2.86127 0.00708008 6.09019V21.3062C0.00708008 24.5351 2.63102 27.159 5.85994 27.159H9.08182L14.4001 32.4773C15.1387 33.2159 16.3979 32.6953 16.3979 31.6472V27.159H37.1784C40.4073 27.159 43.0312 24.5351 43.0312 21.3062V6.09019C43.0242 2.86127 40.4003 0.237305 37.1713 0.237305Z" fill="#92ADDB"/>
<path d="M37.1713 0.237305H5.85994C2.63102 0.237305 0.00708008 2.86127 0.00708008 6.09019V21.3062C0.00708008 24.5351 2.63102 27.159 5.85994 27.159H9.08182L14.4001 32.4773C15.1387 33.2159 16.3979 32.6953 16.3979 31.6472V27.159H37.1784C40.4073 27.159 43.0312 24.5351 43.0312 21.3062V6.09019C43.0242 2.86127 40.4003 0.237305 37.1713 0.237305Z" fill="#0487F3"/>
<path d="M5.85994 24.2396C2.63102 24.2396 0.00708008 21.6157 0.00708008 18.3868V21.3132C0.00708008 24.5421 2.63102 27.1661 5.85994 27.1661H9.08182L14.4001 32.4843C15.1387 33.2229 16.3979 32.7024 16.3979 31.6542V31.5557L9.94005 25.0979C9.39135 24.5491 8.64569 24.2396 7.87187 24.2396H5.85994Z" fill="#0573CE"/>
<path d="M37.1712 0.237305H33.5132C35.5955 0.237305 37.4245 1.32771 38.4586 2.96679C39.0776 3.94461 38.3741 5.21785 37.2205 5.21785H34.8217C29.9748 5.21785 26.0424 9.15027 26.0424 13.9972V22.7764C26.0424 23.5854 25.3881 24.2397 24.5792 24.2397H19.3102C17.6922 24.2397 16.3837 25.5481 16.3837 27.1661H37.1642C40.3931 27.1661 43.0171 24.5421 43.0171 21.3132V6.09719C43.0241 2.86123 40.4002 0.237305 37.1712 0.237305Z" fill="#0573CE"/>
<path d="M34.8285 8.14429H66.1399C69.3689 8.14429 71.9928 10.7682 71.9928 13.9972V29.2132C71.9928 32.4421 69.3689 35.066 66.1399 35.066H51.0716V39.5541C51.0716 40.5953 49.8124 41.1159 49.0738 40.3843L43.7556 35.066H34.8285C31.5996 35.066 28.9757 32.4421 28.9757 29.2132V13.9972C28.9757 10.7612 31.5996 8.14429 34.8285 8.14429Z" fill="#FFD765"/>
<path d="M34.8284 31.8442C31.5995 31.8442 28.9756 29.2203 28.9756 25.9913V29.2132C28.9756 32.4422 31.5995 35.0661 34.8284 35.0661H43.7554L49.0737 40.3843C49.8123 41.123 51.0715 40.6024 51.0715 39.5542V39.1602L44.6137 32.7024C44.065 32.1537 43.3193 31.8442 42.5455 31.8442H34.8284V31.8442Z" fill="#F9C645"/>
<path d="M66.1469 8.14435H62.4889C65.7178 8.14435 68.3417 10.7683 68.3417 13.9972V28.9248C68.3417 30.5428 67.0333 31.8512 65.4153 31.8512H54.005C52.3871 31.8512 51.0786 33.1597 51.0786 34.7777V35.0731H66.1469C69.3758 35.0731 71.9998 32.4492 71.9998 29.2203V14.0043C71.9998 10.7613 69.3758 8.14435 66.1469 8.14435Z" fill="#F9C645"/>
</svg>
