<svg width="16" height="24" viewBox="0 0 16 24" fill="none" xmlns="http://www.w3.org/2000/svg">
<path d="M6.53201 13.4795C6.9396 13.7335 7.23987 14.0906 7.50232 14.4887C7.78869 14.9221 8.33196 14.9344 8.58775 14.4887C8.94251 13.872 9.40793 13.378 10.0302 13.0377C10.053 13.0254 10.0669 12.9968 10.0858 12.976C10.1836 12.8174 10.3638 12.8112 10.5106 12.7518C10.8025 12.6396 11.1111 12.6026 11.4181 12.5668C11.5321 12.5533 11.6577 12.5337 11.7434 12.6509C11.7395 12.772 11.7328 12.8925 11.7328 13.0136C11.7328 16.4785 11.7328 19.9432 11.7328 23.4077C11.7328 23.4822 11.7328 23.5568 11.7328 23.6319C11.7328 23.7788 11.7094 23.919 11.556 23.9773C11.3919 24.0395 11.3013 23.9212 11.214 23.8091C10.5167 22.8945 9.81885 21.9802 9.12045 21.0664C8.86095 20.727 8.60146 20.388 8.34197 20.0493C8.07562 19.7 7.98053 19.6995 7.71807 20.0409C7.32328 20.5556 6.92792 21.0699 6.53201 21.5838C6.42969 21.479 6.4436 21.3433 6.4436 21.2155C6.441 18.7587 6.441 16.3022 6.4436 13.8462C6.44304 13.7195 6.42747 13.5832 6.53201 13.4795Z" fill="#F7A536"/>
<path d="M6.53199 13.4795C6.53199 16.1811 6.53199 18.883 6.53199 21.585C5.95629 22.3452 5.3817 23.1057 4.80822 23.8663C4.72815 23.9723 4.62806 24.03 4.49683 23.984C4.3656 23.9381 4.32334 23.8282 4.32056 23.6975C4.32056 23.614 4.32056 23.5293 4.32056 23.4464V12.9177C5.12572 12.8174 5.86139 13.0181 6.53199 13.4795Z" fill="#F7A536"/>
<path d="M8.57993 0C8.82404 0.168198 8.97751 0.425542 9.18715 0.62794C9.59304 1.01924 10.0865 1.30617 10.6257 1.46444C10.6073 1.66123 10.4388 1.66011 10.3154 1.67301C9.79102 1.72907 9.26611 1.74309 8.75287 1.58274C8.67335 1.55807 8.59495 1.5306 8.51599 1.50537C8.0072 1.34166 7.7275 1.54238 7.71415 2.07612C7.71026 2.23143 7.7414 2.39682 7.61851 2.52465C7.51064 2.60651 7.3833 2.62389 7.2543 2.64071C6.05442 2.80009 4.93561 3.33912 4.05882 4.18025C3.18202 5.02139 2.59245 6.12126 2.37491 7.32166C1.90505 9.92816 3.12837 12.3384 5.40152 13.5769C5.9231 13.8612 6.49361 14.0255 7.07858 14.1309C7.19702 14.1516 7.31824 14.1628 7.39665 14.2744C7.42431 14.3432 7.43921 14.4166 7.44058 14.4908C7.49285 14.9124 7.72806 15.0846 8.12564 14.9719C8.37342 14.9036 8.62579 14.8536 8.88076 14.8222C9.27291 14.7684 9.67214 14.8099 10.0451 14.9433C10.1475 15.0728 10.0318 15.1294 9.95395 15.1759C9.39066 15.5123 8.97862 15.9839 8.6411 16.5439C8.35473 17.0183 7.75864 17.0143 7.4478 16.5496C7.1809 16.1515 6.8784 15.7955 6.47137 15.5404C5.88939 15.1456 5.19626 14.9514 4.49571 14.987C4.46391 14.9911 4.43161 14.9887 4.40075 14.9799C4.36989 14.9712 4.3411 14.9562 4.3161 14.936C4.06254 14.9164 3.82844 15.0061 3.59323 15.07C3.13671 15.1933 2.83421 14.9668 2.81976 14.4897C2.77305 12.912 1.96065 11.7604 0.490996 11.2182C0.243551 11.1269 0.114547 10.9502 0 10.74V10.5157C0.0581854 10.3405 0.137359 10.1732 0.235767 10.0173C0.917491 8.8573 0.903033 7.68833 0.258009 6.51767C0.192853 6.41613 0.13595 6.30945 0.087856 6.19866C-0.0606108 5.78377 0.112323 5.40812 0.538261 5.27357C1.52025 4.96352 2.27037 4.38548 2.71132 3.42675C2.89879 2.99974 3.00498 2.54101 3.02438 2.07444C3.06553 1.40165 3.42586 1.14206 4.06421 1.3596C4.90496 1.6461 5.73237 1.62816 6.54588 1.26877C7.01507 1.06667 7.42761 0.751052 7.74696 0.349851C7.86985 0.193988 7.99885 0.0560659 8.1957 0.00168191L8.57993 0Z" fill="#E94E3E"/>
<path d="M11.7423 14.6691C11.1584 14.613 10.6224 14.8093 10.0847 14.9926C9.41592 14.8256 8.71382 14.8542 8.06062 15.075C7.7242 15.1871 7.39335 14.9337 7.36332 14.5704C7.35554 14.4689 7.36332 14.3663 7.36332 14.2643C7.51679 14.1382 7.70029 14.1847 7.86878 14.1925C8.75674 14.235 9.64149 14.0573 10.4455 13.675C11.5671 13.1475 12.4251 12.3244 13.0368 11.244C13.5921 10.267 13.8456 9.14507 13.7646 8.02191C13.692 6.7168 13.1747 5.47701 12.3 4.51218C11.2863 3.3718 10.004 2.7618 8.50379 2.60202C8.30195 2.58071 8.09843 2.59865 7.89547 2.59192C7.78759 2.588 7.67305 2.61099 7.58352 2.5168C7.67972 2.34243 7.6319 2.15293 7.63913 1.97015C7.65136 1.52163 8.01168 1.24522 8.42372 1.39884C9.07007 1.64087 9.76957 1.70096 10.4472 1.57265C10.5234 1.55919 10.5901 1.54181 10.6279 1.46668C11.1898 1.62089 11.7811 1.63091 12.3478 1.49583C12.8182 1.39155 13.1207 1.63039 13.1302 2.11256C13.1596 3.64709 14.0254 4.86708 15.4489 5.38177C15.9677 5.56959 16.0762 5.89813 15.7903 6.37694C15.0263 7.65562 15.0439 8.92514 15.8432 10.1855C16.1245 10.6284 16.0274 10.9536 15.5518 11.161C14.2173 11.7481 13.5127 12.787 13.4104 14.2475C13.3754 14.7487 13.0896 14.9646 12.6119 14.8255C12.3284 14.7423 12.0368 14.6899 11.7423 14.6691Z" fill="#E94E3E"/>
<path d="M7.58348 2.51455C8.73952 2.46465 9.84607 2.662 10.8542 3.25182C12.5085 4.21896 13.5144 5.65425 13.7863 7.57787C14.0215 9.24751 13.6095 10.7557 12.5691 12.0716C11.6416 13.2456 10.4344 13.9582 8.96139 14.2088C8.42869 14.2996 7.89487 14.2497 7.36162 14.2649C6.76386 14.1527 6.16776 14.0299 5.61727 13.7603C3.72946 12.8284 2.57898 11.3304 2.26648 9.21892C2.03572 7.65692 2.39215 6.21995 3.31464 4.94669C4.29831 3.58934 5.62505 2.7904 7.28488 2.57062C7.38497 2.55436 7.48395 2.53249 7.58348 2.51455Z" fill="#FCC24D"/>
<path d="M8.02272 13.1452C5.49211 13.2383 3.28847 10.98 3.30515 8.39253C3.32239 5.7664 5.46375 3.61347 8.0572 3.62692C10.61 3.64206 12.747 5.77818 12.7464 8.42561C12.7453 10.9738 10.5784 13.2383 8.02272 13.1452Z" fill="#FCE577"/>
<path d="M10.6929 7.21012C10.3718 7.13496 10.0459 7.0825 9.7176 7.05313C9.3 7.02286 8.96859 6.90792 8.83569 6.45603C8.79733 6.32596 8.7078 6.21102 8.64219 6.08936C8.561 5.91275 8.47815 5.73614 8.39808 5.55841C8.32523 5.39582 8.21903 5.26631 8.03108 5.26407C7.84313 5.26182 7.73582 5.38853 7.65797 5.55C7.48003 5.91836 7.29653 6.28391 7.11748 6.65114C7.07557 6.7494 7.00731 6.83393 6.92038 6.89523C6.83345 6.95654 6.73129 6.99219 6.62537 6.99819C6.2328 7.03856 5.84356 7.10527 5.45376 7.16639C5.27416 7.19442 5.11346 7.26002 5.05452 7.46017C4.99891 7.64126 5.10401 7.76125 5.218 7.87562C5.51882 8.17782 5.81854 8.48113 6.12214 8.78109C6.24058 8.89826 6.31398 9.03507 6.28896 9.2027C6.21834 9.6417 6.14439 10.0801 6.05875 10.5158C6.02539 10.6868 6.03651 10.8353 6.17664 10.9436C6.2394 10.9929 6.31555 11.0218 6.39499 11.0265C6.47444 11.0312 6.55342 11.0115 6.62148 10.9699C6.83334 10.8578 7.04297 10.74 7.25372 10.6251C7.37212 10.5736 7.48726 10.5148 7.59847 10.449C7.90374 10.2422 8.18567 10.2629 8.49539 10.4603C8.80511 10.6576 9.14431 10.8118 9.47238 10.9811C9.53403 11.0141 9.60367 11.029 9.6733 11.0239C9.74293 11.0188 9.80974 10.9941 9.86606 10.9525C9.99396 10.8667 10.0229 10.7283 10.0001 10.5847C9.93335 10.1553 9.88497 9.72131 9.78544 9.2997C9.72983 9.05861 9.80379 8.90723 9.95837 8.75754C10.2681 8.45142 10.5795 8.14642 10.8781 7.82909C11.1205 7.56782 11.0382 7.28356 10.6929 7.21012Z" fill="#F7A536"/>
</svg>
