<svg xmlns="http://www.w3.org/2000/svg" xmlns:xlink="http://www.w3.org/1999/xlink" width="62" height="62" viewBox="0 0 62 62">
  <defs>
    <clipPath id="clip-path">
      <rect id="Rectangle_20481" data-name="Rectangle 20481" width="34" height="34" transform="translate(0 0.034)" fill="none"/>
    </clipPath>
  </defs>
  <g id="Group_16881" data-name="Group 16881" transform="translate(14 13.966)">
    <circle id="Ellipse_10149" data-name="Ellipse 10149" cx="31" cy="31" r="31" transform="translate(-14 -13.966)" fill="#eff4ff"/>
    <g id="Mask_Group_242" data-name="Mask Group 242" clip-path="url(#clip-path)">
      <g id="alphabet_1_" data-name="alphabet (1)" transform="translate(0.001 0.034)">
        <path id="Path_60020" data-name="Path 60020" d="M26.915,10.7a6.058,6.058,0,0,1-.807-.524,5.662,5.662,0,0,1-3.442,1.162H20.894a3.944,3.944,0,0,1-1.771-.439,3.845,3.845,0,0,1-3.541.014,3.933,3.933,0,0,1-1.771.425,3.893,3.893,0,0,1-3.9-3.9v-4.6A5.651,5.651,0,0,1,10.681,0H5.666a4.262,4.262,0,0,0-4.25,4.25V24.79c0,1.388,1.9,3.541,4.25,3.541h4.25v4.6a1.064,1.064,0,0,0,1.771.793l2.479-2.21,2.479,2.21a1.065,1.065,0,0,0,1.771-.793v-4.6H25.5a1.421,1.421,0,0,0,1.417-1.417Zm-17,14.8H5.666a1.417,1.417,0,1,1,0-2.833h4.25Zm14.166,0H18.415V22.665h5.666Z" fill="#56aade"/>
        <path id="Path_60021" data-name="Path 60021" d="M17.353,8.5a1.063,1.063,0,0,1-1.062-1.062v-4.6a.708.708,0,1,0-1.417,0v4.6a1.062,1.062,0,1,1-2.125,0v-4.6a2.833,2.833,0,1,1,5.666,0v4.6A1.063,1.063,0,0,1,17.353,8.5Z" fill="#a6d4f0"/>
        <path id="Path_60022" data-name="Path 60022" d="M17.353,6.375H13.812a1.062,1.062,0,1,1,0-2.125h3.541a1.062,1.062,0,0,1,0,2.125Z" fill="#a6d4f0"/>
        <path id="Path_60023" data-name="Path 60023" d="M22.665,8.5H20.894a1.063,1.063,0,0,1-1.062-1.062V1.062A1.063,1.063,0,0,1,20.894,0h1.771A2.752,2.752,0,0,1,25.5,2.656,2.531,2.531,0,0,1,24.93,4.25,2.531,2.531,0,0,1,25.5,5.843,2.752,2.752,0,0,1,22.665,8.5Zm-.708-2.125h.708c.384,0,.708-.244.708-.531s-.324-.531-.708-.531h-.708Zm0-3.187h.708c.384,0,.708-.244.708-.531s-.324-.531-.708-.531h-.708Z" fill="#a6d4f0"/>
        <path id="Path_60024" data-name="Path 60024" d="M31.519,8.5H29.394A2.482,2.482,0,0,1,26.915,6.02V2.479A2.482,2.482,0,0,1,29.394,0h2.125a1.062,1.062,0,0,1,0,2.125H29.394a.354.354,0,0,0-.354.354V6.02a.354.354,0,0,0,.354.354h2.125a1.062,1.062,0,0,1,0,2.125Z" fill="#a6d4f0"/>
      </g>
    </g>
  </g>
</svg>
