<svg xmlns="http://www.w3.org/2000/svg" xmlns:xlink="http://www.w3.org/1999/xlink" width="18" height="18" viewBox="0 0 18 18">
  <defs>
    <clipPath id="clip-path">
      <rect id="Rectangle_23530" data-name="Rectangle 23530" width="18" height="18" transform="translate(128.761 36.158)" fill="#fff" stroke="#707070" stroke-width="1.5"/>
    </clipPath>
  </defs>
  <g id="Mask_Group_510" data-name="Mask Group 510" transform="translate(-128.761 -36.158)" clip-path="url(#clip-path)">
    <g id="calendar_12_" data-name="calendar (12)" transform="translate(128.761 36.158)">
      <g id="Group_47758" data-name="Group 47758">
        <path id="Path_98825" data-name="Path 98825" d="M2.72,18H15.28a2.389,2.389,0,0,0,2.387-2.387V3.72A2.389,2.389,0,0,0,15.28,1.333h-.947V.667A.667.667,0,0,0,13,.667v.667H5V.667a.667.667,0,0,0-1.333,0v.667H2.72A2.389,2.389,0,0,0,.333,3.72V15.613A2.389,2.389,0,0,0,2.72,18ZM1.667,3.72A1.056,1.056,0,0,1,2.72,2.667h.947v.667A.667.667,0,0,0,5,3.333V2.667h8v.667a.667.667,0,0,0,1.333,0V2.667h.947A1.056,1.056,0,0,1,16.333,3.72V5.667H1.667Zm0,3.28H16.333v8.613a1.056,1.056,0,0,1-1.053,1.053H2.72a1.056,1.056,0,0,1-1.053-1.053Z" fill="#646464"/>
      </g>
    </g>
  </g>
</svg>
