<svg xmlns="http://www.w3.org/2000/svg" xmlns:xlink="http://www.w3.org/1999/xlink" width="62" height="62" viewBox="0 0 62 62">
  <defs>
    <clipPath id="clip-path">
      <rect id="Rectangle_5274" data-name="Rectangle 5274" width="34" height="34" fill="none"/>
    </clipPath>
  </defs>
  <g id="Group_45568" data-name="Group 45568" transform="translate(-585 -549)">
    <circle id="Ellipse_10147" data-name="Ellipse 10147" cx="31" cy="31" r="31" transform="translate(585 549)" fill="#eff4ff"/>
    <g id="Group_16881" data-name="Group 16881" transform="translate(599 563)">
      <g id="Mask_Group_231" data-name="Mask Group 231" clip-path="url(#clip-path)">
        <g id="chat_7_" data-name="chat (7)" transform="translate(0)">
          <path id="Path_45818" data-name="Path 45818" d="M29.161,27.8A13.819,13.819,0,0,0,27.918,8.471a15.8,15.8,0,0,1-15.18,20.109c-.2,0,1.014.007-3.773-.022a13.765,13.765,0,0,0,9.744,4.026l12.834-.066a.985.985,0,0,0,.687-1.685Z" transform="translate(1.076 1.017)" fill="#a6d4f0"/>
          <path id="Path_45819" data-name="Path 45819" d="M13.814,27.629a13.812,13.812,0,1,0-10.451-4.78L.294,25.878A.985.985,0,0,0,.98,27.563ZM7.941,8.925H19.753a.984.984,0,0,1,0,1.969H7.941a.984.984,0,0,1,0-1.969Zm0,3.938H19.753a.984.984,0,0,1,0,1.969H7.941a.984.984,0,0,1,0-1.969Zm-.984,4.922a.984.984,0,0,1,.984-.984H19.753a.984.984,0,0,1,0,1.969H7.941a.984.984,0,0,1-.984-.984Z" transform="translate(0)" fill="#56aade"/>
        </g>
      </g>
    </g>
  </g>
</svg>
