<svg xmlns="http://www.w3.org/2000/svg" xmlns:xlink="http://www.w3.org/1999/xlink" width="49" height="47" viewBox="0 0 49 47"><defs><style>.a{fill:#e42d2d;opacity:0.66;}.b{clip-path:url(#a);}.c{fill:#7672f7;}.d{fill:#bbb7ff;}</style><clipPath id="a"><rect class="a" width="49" height="47" transform="translate(0.06)"/></clipPath></defs><g class="b" transform="translate(-0.06)"><g transform="translate(9.614 7.217)"><path class="c" d="M27.809,19.2a1.067,1.067,0,0,0-1.067-1.067h-3.2V17.067a1.067,1.067,0,1,0-2.134,0v1.067h-6.4V17.067a1.067,1.067,0,1,0-2.134,0v1.067h-6.4V17.067a1.067,1.067,0,1,0-2.134,0v1.067H1.067A1.067,1.067,0,0,0,0,19.2v3.2H27.809Z" transform="translate(0 -16)"/><path class="c" d="M27.809,142.4V136H0v16a1.067,1.067,0,0,0,1.067,1.067H17.141A10.681,10.681,0,0,1,27.809,142.4Zm-9.6-3.2h2.134a1.067,1.067,0,1,1,0,2.134H18.208a1.067,1.067,0,1,1,0-2.134ZM7.539,149.869H5.405a1.067,1.067,0,1,1,0-2.134H7.539a1.067,1.067,0,1,1,0,2.134Zm0-4.267H5.405a1.067,1.067,0,1,1,0-2.134H7.539a1.067,1.067,0,1,1,0,2.134Zm0-4.267H5.405a1.067,1.067,0,1,1,0-2.134H7.539a1.067,1.067,0,1,1,0,2.134Zm6.4,8.535H11.806a1.067,1.067,0,1,1,0-2.134H13.94a1.067,1.067,0,1,1,0,2.134Zm0-4.267H11.806a1.067,1.067,0,1,1,0-2.134H13.94a1.067,1.067,0,1,1,0,2.134Zm0-4.267H11.806a1.067,1.067,0,1,1,0-2.134H13.94a1.067,1.067,0,1,1,0,2.134Z" transform="translate(0 -127.465)"/><path class="d" d="M279.535,256a8.535,8.535,0,1,0,8.606,8.535A8.535,8.535,0,0,0,279.535,256Zm2.888,11.423a1.066,1.066,0,0,1-1.509,0l-2.134-2.134a1.066,1.066,0,0,1-.312-.754v-4.267a1.067,1.067,0,1,1,2.134,0v3.826l1.821,1.821A1.066,1.066,0,0,1,282.423,267.423Z" transform="translate(-251.726 -238.93)"/></g></g></svg>