<svg xmlns="http://www.w3.org/2000/svg" xmlns:xlink="http://www.w3.org/1999/xlink" width="62" height="62" viewBox="0 0 62 62">
  <defs>
    <clipPath id="clip-path">
      <rect id="Rectangle_5271" data-name="Rectangle 5271" width="34" height="34" transform="translate(575 565)" fill="#fff"/>
    </clipPath>
  </defs>
  <g id="Group_45567" data-name="Group 45567" transform="translate(-591 -551)">
    <circle id="Ellipse_10148" data-name="Ellipse 10148" cx="31" cy="31" r="31" transform="translate(591 551)" fill="#eff4ff"/>
    <g id="Mask_Group_228" data-name="Mask Group 228" transform="translate(30)" clip-path="url(#clip-path)">
      <g id="contract" transform="translate(575 565)">
        <g id="Group_19149" data-name="Group 19149" transform="translate(20.162)">
          <g id="Group_19148" data-name="Group 19148">
            <path id="Path_45797" data-name="Path 45797" d="M25.954,5.891a3.014,3.014,0,0,0-.888-2.144L22.207.888A3.1,3.1,0,0,0,20.044,0H19.87V6.064h6.084V5.891Z" transform="translate(-19.87)" fill="#aed3ed"/>
          </g>
        </g>
        <g id="Group_19151" data-name="Group 19151">
          <g id="Group_19150" data-name="Group 19150">
            <path id="Path_45798" data-name="Path 45798" d="M18.459,20.858a4.057,4.057,0,0,1,.971-1.577l6.844-6.816V8.086h-7.1a.983.983,0,0,1-.978-1.011V0H3.032A3.036,3.036,0,0,0,0,3.032V31.468A3.036,3.036,0,0,0,3.032,34.5H23.214a3.059,3.059,0,0,0,3.059-3.032V23.924l-1.111,1.084a4.019,4.019,0,0,1-1.571.969L20.378,27.05l-.49.027a2.527,2.527,0,0,1-2.395-3.329Zm-13.4-2.664H15.128a1.011,1.011,0,0,1,0,2.021H5.054a1.011,1.011,0,0,1,0-2.021ZM4.043,15.161A1.01,1.01,0,0,1,5.054,14.15H15.128a1.011,1.011,0,0,1,0,2.021H5.054A1.01,1.01,0,0,1,4.043,15.161Zm0,8.086a1.01,1.01,0,0,1,1.011-1.011H15.128a1.011,1.011,0,0,1,0,2.021H5.054A1.01,1.01,0,0,1,4.043,23.247ZM19.171,28.3a1.011,1.011,0,1,1,0,2.021H13.107a1.011,1.011,0,1,1,0-2.021ZM5.054,12.129a1.011,1.011,0,1,1,0-2.021H19.171a1.011,1.011,0,1,1,0,2.021Z" fill="#56aade"/>
          </g>
        </g>
        <g id="Group_19153" data-name="Group 19153" transform="translate(19.384 21.752)">
          <g id="Group_19152" data-name="Group 19152">
            <path id="Path_45799" data-name="Path 45799" d="M20.009,21.436l-.879,2.638a.505.505,0,0,0,.639.639l2.637-.881Z" transform="translate(-19.103 -21.436)" fill="#a6d4f0"/>
          </g>
        </g>
        <g id="Group_19155" data-name="Group 19155" transform="translate(21.483 13.43)">
          <g id="Group_19154" data-name="Group 19154">
            <path id="Path_45800" data-name="Path 45800" d="M27.828,13.235l-6.657,6.657,2.871,2.871L30.7,16.106Z" transform="translate(-21.172 -13.235)" fill="#a6d4f0"/>
          </g>
        </g>
        <g id="Group_19157" data-name="Group 19157" transform="translate(29.569 9.969)">
          <g id="Group_19156" data-name="Group 19156">
            <path id="Path_45801" data-name="Path 45801" d="M33.477,10.386a2.111,2.111,0,0,0-2.868,0L29.14,11.856l2.87,2.87,1.469-1.469A2.035,2.035,0,0,0,33.477,10.386Z" transform="translate(-29.14 -9.825)" fill="#a6d4f0"/>
          </g>
        </g>
        <g id="Group_19160" data-name="Group 19160" transform="translate(33.908 13.382)">
          <g id="Group_19159" data-name="Group 19159">
            <g id="Group_19158" data-name="Group 19158">
              <path id="Path_45802" data-name="Path 45802" d="M33.417,13.208h0l.006-.006Z" transform="translate(-33.417 -13.188)"/>
              <path id="Path_45803" data-name="Path 45803" d="M33.422,13.2l.009-.009Z" transform="translate(-33.417 -13.188)"/>
              <path id="Path_45804" data-name="Path 45804" d="M33.431,13.193Z" transform="translate(-33.416 -13.188)"/>
            </g>
          </g>
        </g>
      </g>
    </g>
  </g>
</svg>
