<svg xmlns="http://www.w3.org/2000/svg" xmlns:xlink="http://www.w3.org/1999/xlink" width="49" height="47" viewBox="0 0 49 47"><defs><style>.a{fill:#e42d2d;opacity:0.66;}.b{clip-path:url(#a);}.c{fill:#f4e0bb;}.d{fill:#f4af2f;}</style><clipPath id="a"><rect class="a" width="49" height="47" transform="translate(0 0)"/></clipPath></defs><g class="b"><g transform="translate(6.72 6.536)"><path class="c" d="M33.4,432H22.276a.991.991,0,0,0-.982,1v.667a.331.331,0,0,1-.327.334H14.42a.331.331,0,0,1-.327-.334V433a.991.991,0,0,0-.982-1H1.982A.991.991,0,0,0,1,433v1.334a2.974,2.974,0,0,0,2.946,3h27.5a2.975,2.975,0,0,0,2.946-3V433A.992.992,0,0,0,33.4,432Z" transform="translate(-1 -403.178)"/><path class="d" d="M195.433,282a4.3,4.3,0,0,0-4.243,4h8.486A4.3,4.3,0,0,0,195.433,282Z" transform="translate(-178.739 -263.186)"/><ellipse class="d" cx="1.949" cy="1.987" rx="1.949" ry="1.987" transform="translate(14.816 12.901)"/><path class="d" d="M34.579,124.017h3.61a2.955,2.955,0,0,1,2.778-2h10.8V107.537H48.732L45.547,109.7a2.9,2.9,0,0,1-3.2.042,3.015,3.015,0,0,1-1.368-2.343,3.666,3.666,0,0,1-2.627-3.533V102H24.6a3.64,3.64,0,0,0-3.6,3.669v16.346H31.8A2.955,2.955,0,0,1,34.579,124.017Zm-4.414-5v-.667a6.36,6.36,0,0,1,3.342-5.618,4.029,4.029,0,0,1-1.051-2.722,3.929,3.929,0,1,1,7.856,0,4.029,4.029,0,0,1-1.051,2.722,6.36,6.36,0,0,1,3.342,5.618v.667a.992.992,0,0,1-.982,1H31.147A.992.992,0,0,1,30.165,119.013Z" transform="translate(-19.691 -95.195)"/><path class="c" d="M327.129,0h-9.492A1.653,1.653,0,0,0,316,1.668V8.673a1.653,1.653,0,0,0,1.637,1.668h.982v1.637a1.038,1.038,0,0,0,.458.878.967.967,0,0,0,1.068-.014l3.681-2.5h3.3a1.652,1.652,0,0,0,1.637-1.668V1.668A1.652,1.652,0,0,0,327.129,0Zm-2.782,6.171h-3.928a1,1,0,0,1,0-2h3.928a1,1,0,0,1,0,2Z" transform="translate(-295.379 0)"/></g></g></svg>